<svg viewBox="0 0 24 25" fill="none" xmlns="http://www.w3.org/2000/svg">
    <path d="M11.9998 14.2501C11.8698 14.2501 11.7398 14.2201 11.6198 14.1501L2.78985 9.0401C2.42985 8.8301 2.30983 8.37007 2.51983 8.01007C2.72983 7.65007 3.17983 7.53005 3.54983 7.74005L11.9998 12.6301L20.3998 7.77008C20.7598 7.56008 21.2198 7.6901 21.4298 8.0401C21.6398 8.4001 21.5098 8.86006 21.1598 9.07006L12.3899 14.1501C12.2599 14.2101 12.1298 14.2501 11.9998 14.2501Z"
          fill="currentColor"/>
    <path d="M12 23.31C11.59 23.31 11.25 22.97 11.25 22.56V13.49C11.25 13.08 11.59 12.74 12 12.74C12.41 12.74 12.75 13.08 12.75 13.49V22.56C12.75 22.97 12.41 23.31 12 23.31Z"
          fill="currentColor"/>
    <path d="M11.9999 23.6999C11.0899 23.6999 10.2199 23.4899 9.55988 23.1199L4.21988 20.16C2.76988 19.36 1.62988 17.43 1.62988 15.77V10.1099C1.62988 8.44992 2.76988 6.52996 4.21988 5.71996L9.55988 2.75994C10.9199 1.99994 13.0599 1.99994 14.4299 2.75994L19.7699 5.71996C21.2199 6.51996 22.3599 8.44992 22.3599 10.1099V13.77C22.3599 14.18 22.0199 14.52 21.6099 14.52C21.1999 14.52 20.8599 14.18 20.8599 13.77V10.1099C20.8599 9.00992 20.0099 7.56997 19.0499 7.03997L13.7099 4.07995C12.7999 3.56995 11.2099 3.56995 10.2999 4.07995L4.95987 7.03997C3.98987 7.57997 3.14987 9.00992 3.14987 10.1099V15.77C3.14987 16.87 3.99987 18.31 4.95987 18.84L10.2999 21.7999C11.1799 22.2899 12.8399 22.2899 13.7099 21.7999C14.0699 21.5999 14.5299 21.73 14.7299 22.09C14.9299 22.45 14.7999 22.9099 14.4399 23.1099C13.7799 23.4899 12.9099 23.6999 11.9999 23.6999Z"
          fill="currentColor"/>
    <path d="M19.2 23.1C17.02 23.1 15.25 21.33 15.25 19.15C15.25 16.97 17.02 15.2 19.2 15.2C21.38 15.2 23.15 16.97 23.15 19.15C23.15 21.33 21.38 23.1 19.2 23.1ZM19.2 16.7C17.85 16.7 16.75 17.8 16.75 19.15C16.75 20.5 17.85 21.6 19.2 21.6C20.55 21.6 21.65 20.5 21.65 19.15C21.65 17.8 20.55 16.7 19.2 16.7Z"
          fill="currentColor"/>
    <path d="M22.9999 23.6999C22.8099 23.6999 22.6199 23.63 22.4699 23.48L21.4699 22.48C21.1799 22.19 21.1799 21.7099 21.4699 21.4199C21.7599 21.1299 22.2399 21.1299 22.5299 21.4199L23.5299 22.4199C23.8199 22.7099 23.8199 23.19 23.5299 23.48C23.3799 23.63 23.1899 23.6999 22.9999 23.6999Z"
          fill="currentColor"/>
</svg>
