<svg viewBox="0 0 24 25" fill="none" xmlns="http://www.w3.org/2000/svg">
    <path d="M12 15.7C11.59 15.7 11.25 15.36 11.25 14.95V9.94995C11.25 9.53995 11.59 9.19995 12 9.19995C12.41 9.19995 12.75 9.53995 12.75 9.94995V14.95C12.75 15.36 12.41 15.7 12 15.7Z"
          fill="currentColor"/>
    <path d="M12 18.95C11.94 18.95 11.87 18.94 11.8 18.93C11.74 18.92 11.68 18.9 11.62 18.87C11.56 18.85 11.5 18.82 11.44 18.78C11.39 18.74 11.34 18.7 11.29 18.66C11.11 18.47 11 18.21 11 17.95C11 17.69 11.11 17.43 11.29 17.24C11.34 17.2 11.39 17.16 11.44 17.12C11.5 17.08 11.56 17.05 11.62 17.03C11.68 17 11.74 16.98 11.8 16.97C11.93 16.94 12.07 16.94 12.19 16.97C12.26 16.98 12.32 17 12.38 17.03C12.44 17.05 12.5 17.08 12.56 17.12C12.61 17.16 12.66 17.2 12.71 17.24C12.89 17.43 13 17.69 13 17.95C13 18.21 12.89 18.47 12.71 18.66C12.66 18.7 12.61 18.74 12.56 18.78C12.5 18.82 12.44 18.85 12.38 18.87C12.32 18.9 12.26 18.92 12.19 18.93C12.13 18.94 12.06 18.95 12 18.95Z"
          fill="currentColor"/>
    <path d="M18.06 23.11H5.93998C3.98998 23.11 2.49998 22.4 1.73998 21.12C0.989976 19.84 1.08998 18.19 2.03998 16.48L8.09998 5.58004C9.09998 3.78004 10.48 2.79004 12 2.79004C13.52 2.79004 14.9 3.78004 15.9 5.58004L21.96 16.49C22.91 18.2 23.02 19.84 22.26 21.13C21.5 22.4 20.01 23.11 18.06 23.11ZM12 4.29004C11.06 4.29004 10.14 5.01004 9.40998 6.31004L3.35998 17.22C2.67998 18.44 2.56998 19.56 3.03998 20.37C3.50998 21.18 4.54998 21.62 5.94998 21.62H18.07C19.47 21.62 20.5 21.18 20.98 20.37C21.46 19.56 21.34 18.45 20.66 17.22L14.59 6.31004C13.86 5.01004 12.94 4.29004 12 4.29004Z"
          fill="currentColor"/>
</svg>
