<svg viewBox="0 0 24 25" fill="none" xmlns="http://www.w3.org/2000/svg">
    <path d="M15 23.7H9C3.57 23.7 1.25 21.38 1.25 15.95V9.94995C1.25 4.51995 3.57 2.19995 9 2.19995H14C14.41 2.19995 14.75 2.53995 14.75 2.94995C14.75 3.35995 14.41 3.69995 14 3.69995H9C4.39 3.69995 2.75 5.33995 2.75 9.94995V15.95C2.75 20.56 4.39 22.2 9 22.2H15C19.61 22.2 21.25 20.56 21.25 15.95V10.95C21.25 10.54 21.59 10.2 22 10.2C22.41 10.2 22.75 10.54 22.75 10.95V15.95C22.75 21.38 20.43 23.7 15 23.7Z"
          fill="currentColor"/>
    <path d="M22 11.6999H18C14.58 11.6999 13.25 10.3699 13.25 6.94994V2.94994C13.25 2.64994 13.43 2.36994 13.71 2.25994C13.99 2.13994 14.31 2.20994 14.53 2.41994L22.53 10.4199C22.74 10.6299 22.81 10.9599 22.69 11.2399C22.57 11.5199 22.3 11.6999 22 11.6999ZM14.75 4.75994V6.94994C14.75 9.52994 15.42 10.1999 18 10.1999H20.19L14.75 4.75994Z"
          fill="currentColor"/>
</svg>
