<svg viewBox="0 0 24 25" fill="none" xmlns="http://www.w3.org/2000/svg">
    <path d="M11.4 23.7H7.6C3.21 23.7 1.25 21.74 1.25 17.35V13.55C1.25 9.15995 3.21 7.19995 7.6 7.19995H10.6C11.01 7.19995 11.35 7.53995 11.35 7.94995C11.35 8.35995 11.01 8.69995 10.6 8.69995H7.6C4.02 8.69995 2.75 9.96995 2.75 13.55V17.35C2.75 20.93 4.02 22.2 7.6 22.2H11.4C14.98 22.2 16.25 20.93 16.25 17.35V14.35C16.25 13.94 16.59 13.6 17 13.6C17.41 13.6 17.75 13.94 17.75 14.35V17.35C17.75 21.74 15.79 23.7 11.4 23.7Z"
          fill="currentColor"/>
    <path d="M17.0001 15.0999H13.8001C10.9901 15.0999 9.8501 13.9599 9.8501 11.1499V7.94994C9.8501 7.64994 10.0301 7.36994 10.3101 7.25994C10.5901 7.13994 10.9101 7.20994 11.1301 7.41994L17.5301 13.8199C17.7401 14.0299 17.8101 14.3599 17.6901 14.6399C17.5801 14.9199 17.3001 15.0999 17.0001 15.0999ZM11.3501 9.75994V11.1499C11.3501 13.1399 11.8101 13.5999 13.8001 13.5999H15.1901L11.3501 9.75994Z"
          fill="currentColor"/>
    <path d="M15.6001 3.69995H11.6001C11.1901 3.69995 10.8501 3.35995 10.8501 2.94995C10.8501 2.53995 11.1901 2.19995 11.6001 2.19995H15.6001C16.0101 2.19995 16.3501 2.53995 16.3501 2.94995C16.3501 3.35995 16.0101 3.69995 15.6001 3.69995Z"
          fill="currentColor"/>
    <path d="M7 6.69995C6.59 6.69995 6.25 6.35995 6.25 5.94995C6.25 3.87995 7.93 2.19995 10 2.19995H12.62C13.03 2.19995 13.37 2.53995 13.37 2.94995C13.37 3.35995 13.03 3.69995 12.62 3.69995H10C8.76 3.69995 7.75 4.70995 7.75 5.94995C7.75 6.35995 7.41 6.69995 7 6.69995Z"
          fill="currentColor"/>
    <path d="M19.1899 18.7C18.7799 18.7 18.4399 18.36 18.4399 17.95C18.4399 17.54 18.7799 17.2 19.1899 17.2C20.3299 17.2 21.2499 16.27 21.2499 15.14V8.94995C21.2499 8.53995 21.5899 8.19995 21.9999 8.19995C22.4099 8.19995 22.7499 8.53995 22.7499 8.94995V15.14C22.7499 17.1 21.1499 18.7 19.1899 18.7Z"
          fill="currentColor"/>
    <path d="M22 9.69994H19C16.34 9.69994 15.25 8.60994 15.25 5.94994V2.94994C15.25 2.64994 15.43 2.36994 15.71 2.25994C15.99 2.13994 16.31 2.20994 16.53 2.41994L22.53 8.41994C22.74 8.62994 22.81 8.95994 22.69 9.23994C22.58 9.51994 22.3 9.69994 22 9.69994ZM16.75 4.75994V5.94994C16.75 7.77994 17.17 8.19994 19 8.19994H20.19L16.75 4.75994Z"
          fill="currentColor"/>
</svg>
