<svg viewBox="0 0 24 25" fill="none" xmlns="http://www.w3.org/2000/svg">
    <path d="M16 23.7H9C5.56 23.7 3.25 21.39 3.25 17.95V7.94995C3.25 4.50995 5.56 2.19995 9 2.19995H16C19.44 2.19995 21.75 4.50995 21.75 7.94995V17.95C21.75 21.39 19.44 23.7 16 23.7ZM9 3.69995C6.42 3.69995 4.75 5.36995 4.75 7.94995V17.95C4.75 20.53 6.42 22.2 9 22.2H16C18.58 22.2 20.25 20.53 20.25 17.95V7.94995C20.25 5.36995 18.58 3.69995 16 3.69995H9Z"
          fill="currentColor"/>
    <path d="M21 16.7H4C3.59 16.7 3.25 16.36 3.25 15.95C3.25 15.54 3.59 15.2 4 15.2H21C21.41 15.2 21.75 15.54 21.75 15.95C21.75 16.36 21.41 16.7 21 16.7Z"
          fill="currentColor"/>
    <path d="M8 13.7H7C6.59 13.7 6.25 13.36 6.25 12.95C6.25 12.54 6.59 12.2 7 12.2H8C8.41 12.2 8.75 12.54 8.75 12.95C8.75 13.36 8.41 13.7 8 13.7Z"
          fill="currentColor"/>
    <path d="M8 11.2H7C6.59 11.2 6.25 10.86 6.25 10.45C6.25 10.04 6.59 9.69995 7 9.69995H8C8.41 9.69995 8.75 10.04 8.75 10.45C8.75 10.86 8.41 11.2 8 11.2Z"
          fill="currentColor"/>
    <path d="M8 8.69995H7C6.59 8.69995 6.25 8.35995 6.25 7.94995C6.25 7.53995 6.59 7.19995 7 7.19995H8C8.41 7.19995 8.75 7.53995 8.75 7.94995C8.75 8.35995 8.41 8.69995 8 8.69995Z"
          fill="currentColor"/>
    <path d="M17 20.4501C16.74 20.4501 16.48 20.3401 16.29 20.1601C16.11 19.9701 16 19.7101 16 19.4501C16 19.1801 16.11 18.9301 16.29 18.7401C16.57 18.4601 17.01 18.3701 17.38 18.5301C17.5 18.5801 17.61 18.6501 17.71 18.7401C17.89 18.9301 18 19.1901 18 19.4501C18 19.7101 17.89 19.9701 17.71 20.1601C17.61 20.2501 17.51 20.3201 17.38 20.3701C17.26 20.4201 17.13 20.4501 17 20.4501Z"
          fill="currentColor"/>
</svg>
