<svg viewBox="0 0 18 18" fill="none" xmlns="http://www.w3.org/2000/svg">
    <path d="M12.9456 1.45874C12.7882 1.30374 12.6138 1.1669 12.4258 1.05078V4.14453C12.4258 4.30157 12.4882 4.45217 12.5992 4.56321C12.7102 4.67425 12.8609 4.73664 13.0179 4.73664H16.1116C15.9955 4.54864 15.8587 4.37426 15.7037 4.21677L12.9456 1.45874Z"
          fill="currentColor"/>
    <path d="M12.5446 5.44809C12.0739 5.44668 11.6229 5.25908 11.2901 4.92626C10.9573 4.59344 10.7697 4.14245 10.7683 3.67177V0.154667C10.638 0.142825 10.5137 0.119141 10.3775 0.119141H4.84725C4.06206 0.119141 3.30904 0.431052 2.75384 0.986259C2.19863 1.54147 1.88672 2.29449 1.88672 3.07967V14.9218C1.88672 15.707 2.19863 16.46 2.75384 17.0152C3.30904 17.5704 4.06206 17.8823 4.84725 17.8823H13.1367C13.9219 17.8823 14.6749 17.5704 15.2301 17.0152C15.7853 16.46 16.0972 15.707 16.0972 14.9218V5.83888C16.0972 5.70269 16.0736 5.57835 16.0617 5.44809H12.5446ZM11.3604 10.1849H9.58409V11.9612C9.58409 12.1183 9.52171 12.2689 9.41066 12.3799C9.29962 12.491 9.14902 12.5534 8.99198 12.5534C8.83495 12.5534 8.68434 12.491 8.5733 12.3799C8.46226 12.2689 8.39988 12.1183 8.39988 11.9612V10.1849H6.62356C6.46652 10.1849 6.31592 10.1225 6.20488 10.0115C6.09384 9.90047 6.03146 9.74986 6.03146 9.59282C6.03146 9.43579 6.09384 9.28518 6.20488 9.17414C6.31592 9.0631 6.46652 9.00072 6.62356 9.00072H8.39988V7.2244C8.39988 7.06737 8.46226 6.91676 8.5733 6.80572C8.68434 6.69468 8.83495 6.6323 8.99198 6.6323C9.14902 6.6323 9.29962 6.69468 9.41066 6.80572C9.52171 6.91676 9.58409 7.06737 9.58409 7.2244V9.00072H11.3604C11.5174 9.00072 11.668 9.0631 11.7791 9.17414C11.8901 9.28518 11.9525 9.43579 11.9525 9.59282C11.9525 9.74986 11.8901 9.90047 11.7791 10.0115C11.668 10.1225 11.5174 10.1849 11.3604 10.1849Z"
          fill="currentColor"/>
</svg>
