<svg viewBox="0 0 25 25" fill="none" xmlns="http://www.w3.org/2000/svg">
    <path d="M4.66689 18.55V14.55M4.66689 14.55V11.35H6.26689C7.15055 11.35 7.86689 12.0663 7.86689 12.95C7.86689 13.8337 7.15055 14.55 6.26689 14.55H4.66689ZM17.4669 10.55V18.55M17.4669 11.35H21.4669M17.4669 14.55H19.8669M3.06689 8.95V3.35C3.06689 2.46634 3.78324 1.75 4.66689 1.75H17.4669L22.2669 6.55V8.95M3.06689 20.15V22.55C3.06689 23.4337 3.78324 24.15 4.66689 24.15H20.6669C21.5506 24.15 22.2669 23.4337 22.2669 22.55V20.15M11.0669 11.35V17.75H12.6669C13.5506 17.75 14.2669 17.0337 14.2669 16.15V12.95C14.2669 12.0663 13.5506 11.35 12.6669 11.35H11.0669Z"
          stroke="currentColor"/>
</svg>
