<svg viewBox="0 0 24 25" fill="none" xmlns="http://www.w3.org/2000/svg">
    <path d="M17.6201 10.5701H12.3701C11.9601 10.5701 11.6201 10.2301 11.6201 9.82007C11.6201 9.41007 11.9601 9.07007 12.3701 9.07007H17.6201C18.0301 9.07007 18.3701 9.41007 18.3701 9.82007C18.3701 10.2301 18.0401 10.5701 17.6201 10.5701Z"
          fill="currentColor"/>
    <path d="M7.12006 11.33C6.93006 11.33 6.74006 11.26 6.59006 11.11L5.84006 10.36C5.55006 10.07 5.55006 9.59002 5.84006 9.30002C6.13006 9.01002 6.61006 9.01002 6.90006 9.30002L7.12006 9.52002L8.84006 7.80002C9.13006 7.51002 9.61006 7.51002 9.90006 7.80002C10.1901 8.09002 10.1901 8.57002 9.90006 8.86002L7.65006 11.11C7.51006 11.25 7.32006 11.33 7.12006 11.33Z"
          fill="currentColor"/>
    <path d="M17.6201 17.5701H12.3701C11.9601 17.5701 11.6201 17.2301 11.6201 16.8201C11.6201 16.4101 11.9601 16.0701 12.3701 16.0701H17.6201C18.0301 16.0701 18.3701 16.4101 18.3701 16.8201C18.3701 17.2301 18.0401 17.5701 17.6201 17.5701Z"
          fill="currentColor"/>
    <path d="M7.12006 18.33C6.93006 18.33 6.74006 18.26 6.59006 18.11L5.84006 17.36C5.55006 17.07 5.55006 16.59 5.84006 16.3C6.13006 16.01 6.61006 16.01 6.90006 16.3L7.12006 16.52L8.84006 14.8C9.13006 14.51 9.61006 14.51 9.90006 14.8C10.1901 15.09 10.1901 15.57 9.90006 15.86L7.65006 18.11C7.51006 18.25 7.32006 18.33 7.12006 18.33Z"
          fill="currentColor"/>
    <path d="M15 23.7H9C3.57 23.7 1.25 21.38 1.25 15.95V9.94995C1.25 4.51995 3.57 2.19995 9 2.19995H15C20.43 2.19995 22.75 4.51995 22.75 9.94995V15.95C22.75 21.38 20.43 23.7 15 23.7ZM9 3.69995C4.39 3.69995 2.75 5.33995 2.75 9.94995V15.95C2.75 20.56 4.39 22.2 9 22.2H15C19.61 22.2 21.25 20.56 21.25 15.95V9.94995C21.25 5.33995 19.61 3.69995 15 3.69995H9Z"
          fill="currentColor"/>
</svg>
