<svg viewBox="0 0 24 24" fill="none" xmlns="http://www.w3.org/2000/svg">
    <path d="M21 5.97656C17.67 5.64656 14.32 5.47656 10.98 5.47656C9 5.47656 7.02 5.57656 5.04 5.77656L3 5.97656"
          stroke="currentColor" stroke-width="1.5" stroke-linecap="round" stroke-linejoin="round"/>
    <path d="M8.5 4.97L8.72 3.66C8.88 2.71 9 2 10.69 2H13.31C15 2 15.13 2.75 15.28 3.67L15.5 4.97" stroke="currentColor"
          stroke-width="1.5" stroke-linecap="round" stroke-linejoin="round"/>
    <path d="M18.8499 9.14062L18.1999 19.2106C18.0899 20.7806 17.9999 22.0006 15.2099 22.0006H8.7899C5.9999 22.0006 5.9099 20.7806 5.7999 19.2106L5.1499 9.14062"
          stroke="currentColor" stroke-width="1.5" stroke-linecap="round" stroke-linejoin="round"/>
    <path d="M10.3301 16.5H13.6601" stroke="currentColor" stroke-width="1.5" stroke-linecap="round" stroke-linejoin="round"/>
    <path d="M9.5 12.5H14.5" stroke="currentColor" stroke-width="1.5" stroke-linecap="round" stroke-linejoin="round"/>
</svg>
