<svg viewBox="0 0 18 19" fill="none" xmlns="http://www.w3.org/2000/svg">
    <g clip-path="url(#clip0_1101_280105)">
        <path d="M4.60801 1.28418H10.6323L15.7321 6.40516V16.3637C15.7321 17.6073 14.683 18.6175 13.3882 18.6175H4.60803C3.31662 18.6175 2.26758 17.6073 2.26758 16.3637V3.53795C2.26756 2.29437 3.3166 1.28418 4.60801 1.28418Z"
              fill="currentColor"/>
        <path opacity="0.302" fill-rule="evenodd" clip-rule="evenodd"
              d="M10.625 1.28418V6.36517H15.7317L10.625 1.28418Z" fill="white"/>
        <path d="M11.3734 10.3021H6.62668C6.40855 10.3021 6.22852 10.1321 6.22852 9.92206C6.22852 9.71203 6.40855 9.54199 6.62668 9.54199H11.3734C11.5915 9.54199 11.768 9.71203 11.768 9.92206C11.768 10.1321 11.5915 10.3021 11.3734 10.3021ZM9.79113 14.873H6.62668C6.40855 14.873 6.22852 14.703 6.22852 14.4929C6.22852 14.2829 6.40855 14.1129 6.62668 14.1129H9.79113C10.0093 14.1129 10.1858 14.2829 10.1858 14.4929C10.1858 14.703 10.0093 14.873 9.79113 14.873ZM11.3734 13.3494H6.62668C6.40855 13.3494 6.22852 13.1793 6.22852 12.9693C6.22852 12.7593 6.40855 12.5892 6.62668 12.5892H11.3734C11.5915 12.5892 11.768 12.7593 11.768 12.9693C11.768 13.1793 11.5915 13.3494 11.3734 13.3494ZM11.3734 11.8257H6.62668C6.40855 11.8257 6.22852 11.6557 6.22852 11.4457C6.22852 11.2357 6.40855 11.0656 6.62668 11.0656H11.3734C11.5915 11.0656 11.768 11.2357 11.768 11.4457C11.768 11.6557 11.5915 11.8257 11.3734 11.8257Z"
              fill="white"/>
    </g>
    <defs>
        <clipPath id="clip0_1101_280105">
            <rect width="18" height="18" fill="white" transform="translate(0 0.950195)"/>
        </clipPath>
    </defs>
</svg>
